<?xml version="1.0" encoding="UTF-8" standalone="no"?>
<!-- Created with Inkscape (http://www.inkscape.org/) -->

<svg
   version="1.1"
   id="svg1"
   width="1024"
   height="1024"
   viewBox="0 0 1024 1024"
   sodipodi:docname="Icono cohete plano sin colores.svg"
   inkscape:version="1.4 (e7c3feb1, 2024-10-09)"
   xmlns:inkscape="http://www.inkscape.org/namespaces/inkscape"
   xmlns:sodipodi="http://sodipodi.sourceforge.net/DTD/sodipodi-0.dtd"
   xmlns="http://www.w3.org/2000/svg"
   xmlns:svg="http://www.w3.org/2000/svg">
  <defs
     id="defs1" />
  <sodipodi:namedview
     id="namedview1"
     pagecolor="#ffffff"
     bordercolor="#111111"
     borderopacity="1"
     inkscape:showpageshadow="0"
     inkscape:pageopacity="0"
     inkscape:pagecheckerboard="1"
     inkscape:deskcolor="#d1d1d1"
     inkscape:zoom="0.45960169"
     inkscape:cx="467.79637"
     inkscape:cy="621.19006"
     inkscape:window-width="1104"
     inkscape:window-height="714"
     inkscape:window-x="0"
     inkscape:window-y="25"
     inkscape:window-maximized="0"
     inkscape:current-layer="g1" />
  <g
     inkscape:groupmode="layer"
     inkscape:label="Image"
     id="g1">
    <path
       style="fill:#000000"
       d="M 505.11488,867.25 C 502.20255,864.5041 488.90035,843.55615 479.2118,826.45852 468.42376,807.42059 463.15983,791.25174 462.29619,774.5 c -0.64908,-12.59013 0.87634,-28.05419 3.81255,-38.64985 2.5458,-9.18683 4.53991,-12.53202 8.23923,-13.82161 C 476.15139,721.39986 490.85983,721 512.18134,721 c 38.42534,0 40.3514,0.26195 43.25832,5.88331 5.69579,11.01445 8.48816,44.49649 5.10389,61.19853 -2.04233,10.07929 -7.14496,23.66236 -12.74173,33.91816 -8.91095,16.32886 -26.16702,44.1421 -28.54977,46.01637 -3.87552,3.04849 -10.47026,2.69099 -14.13717,-0.76637 z m 12.76761,-2 c 3.13076,-3.15525 23.23347,-36.2935 29.67557,-48.9186 8.25393,-16.17587 12.38287,-32.24418 12.41931,-48.3314 0.0396,-17.47217 -4.70497,-39.29494 -9.23274,-42.46632 C 548.87373,724.22325 543.22679,724 511.95181,724 h -36.60318 l -2.23615,2.38027 c -7.13561,7.59551 -10.70643,44.24228 -6.15901,63.20893 3.83276,15.98588 8.86669,26.38788 27.78334,57.4108 10.17609,16.68858 13.842,21 17.85589,21 1.46582,0 3.72811,-1.17609 5.28979,-2.75 z m -12.49646,-36.5 c -8.61088,-13.8883 -15.93269,-28.93378 -18.53175,-38.0806 -1.98968,-7.00224 -2.30839,-10.31245 -2.23081,-23.1694 0.0498,-8.25 0.51231,-16.8 1.02783,-19 l 0.93732,-4 25.68241,-0.26684 25.68242,-0.26683 0.77327,2.76683 c 0.42531,1.52176 0.7659,10.86684 0.75688,20.76684 -0.0162,17.74119 -0.0637,18.13659 -3.30646,27.5 -1.80953,5.225 -5.12485,12.875 -7.36737,17 -8.13487,14.96368 -15.08454,26 -16.37241,26 -0.72393,0 -3.89703,-4.1625 -7.05133,-9.25 z m 21.66993,-19.27978 c 9.00777,-17.72772 10.44956,-23.82717 10.42256,-44.0924 -0.016,-12.04466 -0.36315,-16.53388 -1.37244,-17.75 C 534.92881,746.2093 531.75956,746 511.45715,746 h -23.29796 l -0.8296,6.75 c -1.59085,12.94403 -0.73959,27.8838 2.151,37.75 2.6716,9.11877 10.60895,25.3605 18.49465,37.84452 l 4.32343,6.84452 4.06832,-6.34452 c 2.23757,-3.48949 7.04761,-12.20792 10.68897,-19.3743 z M 323.11007,767.60449 c -5.19282,-2.87815 -5.03663,-0.17082 -5.07463,-87.96482 L 318,597.77934 334.90919,575.13967 c 9.30005,-12.45182 26.30813,-35.36568 37.79573,-50.9197 l 20.88654,-28.28002 -1.7301,-14.21998 c -3.25828,-26.78039 -4.13882,-46.24311 -3.58907,-79.32963 0.66417,-39.9727 3.07885,-61.28781 10.86291,-95.89034 5.58656,-24.83393 16.54223,-58.84806 24.64001,-76.5 12.85253,-28.01654 21.08925,-43.02348 35.68722,-65.0205 16.17655,-24.37574 40.47532,-54.34459 46.65266,-57.53902 3.77218,-1.95067 9.79179,-1.80639 13.1339,0.31478 6.55069,4.1576 32.30553,36.35 46.99748,58.74474 31.50307,48.01973 50.91512,95.45599 62.20201,152 6.34075,31.76531 8.5227,55.85823 8.513,94 -0.007,28.11702 -0.73058,41.64823 -3.59185,67.18226 l -1.70127,15.18226 6.38519,8.81774 c 3.51185,4.84976 20.68647,28.32411 38.16582,52.16522 L 708,599.19497 l 0,79.95217 c 0,87.0545 0.2497,83.15148 -5.61488,87.76456 -3.17084,2.49419 -10.09991,2.80427 -14.28644,0.63933 -1.5411,-0.79694 -6.59826,-5.85944 -11.23812,-11.25 -4.63987,-5.39057 -25.24805,-29.29185 -45.79597,-53.11397 l -37.35985,-43.31294 -4.87294,16.08093 c -5.10527,16.84765 -9.08317,26.94972 -11.1223,28.24565 -0.66523,0.42277 -30.27726,0.77557 -65.80451,0.78399 -60.2626,0.0143 -64.70086,-0.10206 -66.17306,-1.73469 -1.57738,-1.74926 -8.81129,-22.76145 -12.22166,-35.5 -0.99391,-3.7125 -2.11578,-6.75 -2.49304,-6.75 -0.37726,0 -11.22297,11.95542 -24.10158,26.5676 -29.09281,33.00896 -31.57899,35.84241 -50.49671,57.55002 -19.41951,22.28342 -21.22194,23.89303 -26.70374,23.84694 -2.31836,-0.0195 -5.29067,-0.63152 -6.60513,-1.36007 z m 9.24354,-1.54883 c 2.24446,-0.85334 16.92795,-16.84245 39.74973,-43.28418 23.87204,-27.65856 58.40719,-66.30894 59.48922,-66.57798 0.74679,-0.18568 1.87114,1.98226 2.85245,5.5 3.162,11.33502 10.79317,34.84781 12.18912,37.5565 l 1.41723,2.75 h 63.91762 63.91761 l 1.54016,-2.19889 c 1.5254,-2.1778 7.01543,-18.1121 12.09665,-35.10936 1.68711,-5.64358 3.08672,-8.6975 3.89555,-8.5 1.02588,0.2505 35.52546,39.79928 86.48994,99.14822 10.24157,11.92647 13.5126,13.52963 19.79256,9.70051 6.60407,-4.02673 6.29855,0.1374 6.29855,-85.84817 l 0,-77.90701 -14.27152,-19.39265 c -7.84934,-10.66596 -25.20463,-34.34847 -38.56733,-52.62781 l -24.2958,-33.23517 1.53996,-12.26483 c 3.32285,-26.4644 4.04564,-39.1879 4.04839,-71.26484 0.002,-24.98755 -0.43353,-37.00623 -1.79438,-49.5 -9.79763,-89.95118 -41.79478,-166.77401 -97.04965,-233.00915 -17.37378,-20.8263 -20.68737,-23.44395 -26.58468,-21.0012 -4.71579,1.95334 -24.74866,25.40593 -39.85398,46.65725 -16.5387,23.26794 -34.09847,54.63549 -44.9822,80.3531 -12.59707,29.76614 -23.87161,70.49969 -29.0627,105 -3.78428,25.15062 -4.62776,38.53268 -4.56971,72.5 0.0547,32.01295 0.66061,42.48412 4.06234,70.20541 l 1.62046,13.2054 -4.50426,6.2946 c -2.47734,3.46202 -19.63116,26.70733 -38.1196,51.65624 L 320,600.22329 v 79.3413 c 0,54.50002 0.33689,80.08069 1.07599,81.70285 1.09086,2.39417 5.44224,5.65729 7.60891,5.70595 0.6517,0.0146 2.30261,-0.39834 3.66871,-0.91773 z m 5.6377,-89.80566 c -0.005,-31.7625 -0.28016,-60.00858 -0.61194,-62.76906 l -0.60325,-5.01905 17.79995,-23.98095 C 364.36605,571.29142 378.18935,552.625 385.29452,543 c 7.10517,-9.625 13.52949,-17.6424 14.27626,-17.81644 0.75768,-0.17659 1.56751,0.70735 1.83235,2 8.13568,39.71027 14.93761,69.10616 21.68072,93.69756 3.25262,11.86194 3.72204,14.66028 2.67977,15.97475 -0.69499,0.8765 -15.88862,18.44308 -33.76362,39.03685 -17.875,20.59377 -36.4901,42.09263 -41.3669,47.77525 -5.41732,6.31246 -9.5995,10.33203 -10.75,10.33203 -1.8223,0 -1.88338,-1.86472 -1.89179,-57.75 z m 44.9569,5.77553 c 32.67376,-37.67933 41.04642,-47.89239 40.58009,-49.5 -3.81135,-13.13895 -14.75651,-57.8464 -18.87267,-77.08874 -2.88533,-13.48842 -5.58296,-24.51936 -5.99474,-24.5132 -0.41177,0.006 -13.78074,17.55792 -29.7088,39.00391 l -28.96013,38.99269 0.66792,60.54268 c 0.36735,33.29847 0.76979,60.42892 0.8943,60.2899 0.12451,-0.13902 18.75183,-21.61628 41.39403,-47.72724 z M 676.60354,725.1715 C 673.36049,721.50217 659.86427,705.9 646.61195,690.5 633.35962,675.1 617.00053,656.54796 610.25841,649.27324 603.51628,641.99852 598,635.7426 598,635.37119 c 0,-0.37142 1.56239,-6.34437 3.47198,-13.27324 7.04797,-25.57332 20.79165,-84.8104 21.7138,-93.5894 0.18413,-1.75298 0.96672,-3.11498 1.89028,-3.28983 1.06713,-0.20202 11.34219,12.95844 31.81966,40.75513 l 30.2436,41.0535 -0.72311,62.48632 c -0.65155,56.30241 -0.88111,62.47856 -2.31966,62.40783 -0.8781,-0.0432 -4.24996,-3.08068 -7.49301,-6.75 z M 669.54533,588.00226 C 661.23406,576.72602 648.22111,559.0625 640.62766,548.75 c -7.59346,-10.3125 -14.1036,-18.74575 -14.46697,-18.74056 -0.36338,0.005 -1.95631,6.64269 -3.53985,14.75 -2.2089,11.30894 -17.53174,74.84138 -21.18976,87.85816 -0.4759,1.69344 1.77488,4.68088 11.23691,14.91465 6.50761,7.03837 14.74846,16.21045 18.31302,20.3824 22.44475,26.26929 44.91504,52.19896 48.42448,55.87963 l 4.09451,4.29427 0.57836,-59.79201 0.57836,-59.79202 z M 458.50326,678.25 C 440.55537,620.77649 423.75448,548.28884 416.57436,497.34722 411.45607,461.03396 410.58354,448.634 410.56884,412 c -0.0145,-36.07893 0.95802,-49.40969 5.54148,-75.96222 4.23867,-24.55502 12.36342,-56.66249 17.3713,-68.64804 l 1.42146,-3.40203 77.79846,0.25615 L 590.5,264.5 l 2.82291,8 c 9.98027,28.28367 17.8133,67.87213 20.75483,104.89568 1.49857,18.8619 0.64994,67.57486 -1.53488,88.10432 -5.09879,47.91028 -13.47236,91.74684 -28.65272,150 -7.20171,27.63589 -19.00941,68.79902 -20.1513,70.25 -0.73216,0.93034 -6.45056,1.25 -22.36128,1.25 H 520 l -0.0318,-105.75 c -0.0337,-111.92788 0.1523,-107.52763 -4.65246,-110.08666 -3.262,-1.73735 -5.14132,-1.42867 -7.86119,1.29121 L 505,474.90909 V 580.95455 687 H 483.11786 461.23571 Z M 502,580.45034 c 0,-91.29561 0.19147,-104.91992 1.51035,-107.47036 C 505.434,469.26005 507.82997,468 512.97971,468 c 4.74762,0 9.01809,3.40957 9.02366,7.20455 0.002,1.2625 0.0155,48.98295 0.0304,106.04545 l 0.027,103.75 h 19.43445 c 17.67604,0 19.52142,-0.16252 20.39575,-1.79622 1.2536,-2.34237 11.45873,-38.03973 18.49746,-64.70378 17.15344,-64.98048 25.64339,-110.47951 30.78841,-165 1.64832,-17.46686 1.66249,-66.73623 0.0237,-82.5 -3.68388,-35.43627 -9.97701,-66.28847 -19.32677,-94.75 L 588.83507,267 h -76.38705 l -76.38705,0 -4.00165,12.75 c -15.04518,47.93671 -22.01117,103.9777 -19.20325,154.48907 3.0494,54.85505 12.27991,109.97081 29.77054,177.76093 6.29117,24.3833 17.77403,64.62976 19.87309,69.65353 L 463.89795,685 H 482.94897 502 Z m -5.39194,-158.97236 c -14.81354,-4.06736 -28.78863,-15.42666 -35.94955,-29.22071 -17.78789,-34.26473 2.16498,-75.57991 39.99649,-82.81828 9.46148,-1.81028 14.99892,-1.79357 23.845,0.0719 18.98471,4.00359 36.05811,18.8026 42.67374,36.98908 3.40414,9.35804 3.74789,25.94004 0.74727,36.04765 -5.31828,17.91468 -18.29529,31.33026 -36.40437,37.6347 -6.97935,2.42977 -9.43996,2.78105 -19.01664,2.71485 -6.05,-0.0418 -13.20137,-0.68047 -15.89194,-1.41922 z m 28.28883,-2.01542 c 13.44732,-3.16981 25.90052,-11.8317 33.4132,-23.24073 7.18068,-10.90483 9.0087,-16.87126 9.10634,-29.72183 0.0702,-9.23885 -0.30125,-12.06647 -2.31998,-17.66112 -6.35161,-17.60262 -21.63166,-31.67978 -39.59645,-36.47932 -6.87021,-1.83547 -20.92857,-1.71472 -27.5685,0.23679 -24.26225,7.13081 -41.30601,28.96002 -41.30601,52.90365 0,26.33209 20.42347,50.47041 46.37451,54.80962 5.72445,0.95717 15.91518,0.56295 21.89689,-0.84706 z M 501.92935,401.63263 C 492.0279,398.96292 483.28161,391.69062 478.31745,382 475.75561,376.99898 475.5,375.54741 475.5,366 c 0,-9.57763 0.25644,-11.02228 2.91921,-16.44553 7.33579,-14.94073 22.50811,-22.8276 39.334,-20.44658 8.47038,1.19863 14.76693,4.33504 20.7854,10.3535 16.46237,16.46238 14.11325,44.05573 -4.84297,56.88674 -9.13327,6.18208 -21.07162,8.16809 -31.76629,5.2845 z M 526.5,397.02617 c 7.45991,-3.45216 13.98327,-9.83837 17.39182,-17.02617 2.2103,-4.66097 2.60818,-6.87296 2.60818,-14.5 0,-8.33875 -0.24974,-9.46055 -3.3991,-15.26834 -10.2505,-18.90312 -32.56862,-24.78043 -49.97107,-13.15952 -17.97701,12.00458 -21.00633,35.88311 -6.57831,51.85321 10.33046,11.43458 25.91519,14.59488 39.94848,8.10082 z M 442,246.58861 c 0,-4.29966 16.34356,-37.39489 27.78173,-56.25718 C 483.18342,168.23116 509.39681,133 512.4386,133 c 3.15681,0 31.38787,38.38214 45.60261,62 C 565.82961,207.94048 583,242.92446 583,245.85255 V 248 h -70.5 c -60.03272,0 -70.5,-0.20955 -70.5,-1.41139 z m 138,-2.18774 c 0,-1.75992 -16.87543,-35.12401 -23.09078,-45.65235 -11.03331,-18.68959 -28.30309,-43.32543 -42.11394,-60.07675 l -2.33177,-2.82823 -8.53012,10.82823 c -24.76733,31.43995 -42.77466,60.80992 -55.53536,90.57823 l -3.32217,7.75 h 67.46207 C 549.64207,245 580,244.73039 580,244.40087 Z"
       id="path1" />
  </g>
</svg>
